<svg xmlns="http://www.w3.org/2000/svg" shape-rendering="geometricPrecision" text-rendering="geometricPrecision" image-rendering="optimizeQuality" fill-rule="evenodd" clip-rule="evenodd" viewBox="0 0 512 454.63"><path fill-rule="nonzero" d="M474.53 297.19c-3.03-12.25-10.85-23.5-23.14-31.67a2.86 2.86 0 0 1-1.13-3.27c.35-1.04.64-2.12.86-3.24.22-1.05.38-2.15.46-3.28l.11-2.01-.24-3.42a2.8 2.8 0 0 1 .22-1.44c.62-1.45 2.3-2.12 3.75-1.5 21.45 9.21 37.46 22.94 46.87 38.6 7.37 12.25 10.7 25.71 9.46 39.13l-.01.08c-1.27 13.44-7.11 26.82-18.06 38.89-14.88 16.39-39.25 30.43-74.46 38.96l-1.7.41c-19.83 4.81-41.87 10.15-65.39 13.05l-.47.04a2.86 2.86 0 0 1-2.86-2.86V388.8a2.87 2.87 0 0 1 2.53-2.84c10.41-1.21 20.43-2.82 30.01-4.66 9.62-1.84 18.79-3.92 27.48-6.07 28.3-6.99 47.29-20.5 57.65-36.1 4.46-6.71 7.32-13.81 8.64-20.91 1.31-7.09 1.1-14.22-.58-21.03zM99.52 51.56 253.03.44c1.84-.62 3.75-.56 5.45.03V.44l155.55 53.28a8.564 8.564 0 0 1 5.8 8.88c.02.19.02.4.02.62v187.59h-.02c0 3.13-1.73 6.15-4.72 7.66l-154.44 78.48a8.624 8.624 0 0 1-4.45 1.24c-1.73 0-3.32-.51-4.67-1.38L96.76 256.07a8.597 8.597 0 0 1-4.61-7.61h-.03V60.09c0-4.35 3.21-7.93 7.4-8.53zm190.69 212.57 3.88-108.55 44.45-14.51c17.11-5.59 28.43-5.36 34.27.52 5.77 5.83 8.27 17.9 7.52 36.22-.73 18.29-4.28 32.5-10.68 42.71-6.46 10.3-18.07 18.85-35.12 25.73l-44.32 17.88zm47.76-96.17-12.86 4.45-1.94 51.77 12.84-4.92c4.18-1.61 7.22-3.28 9.12-5.06 1.91-1.76 2.93-4.53 3.08-8.31l1.29-33.19c.14-3.79-.68-5.89-2.52-6.29-1.82-.42-4.83.09-9.01 1.55zm-150.1 12.57.73-10.22c-3.2-2.29-8.38-5.39-15.54-9.31-7.08-3.87-15.9-7.56-26.39-11.08l-2.43-24.88c12.88 2.82 25.4 7.42 37.56 13.85 10.6 5.62 18.31 10.37 23.08 14.22 4.79 3.88 8.29 7.34 10.5 10.41 4.86 6.93 6.97 14.63 6.34 23.07-.8 10.69-6.02 15.79-15.61 15.27l-.06.8c10.71 10.54 15.67 21.61 14.8 33.11-.42 5.63-1.71 9.89-3.86 12.79-2.14 2.87-4.69 4.59-7.62 5.1-2.92.53-6.68.08-11.27-1.34-6.79-2.17-16.09-6.8-27.84-13.81-11.59-6.92-22.94-15.06-34.07-24.42l6-22.55c9.58 7.97 17.87 14 24.77 17.99 6.98 4.06 13.03 7.23 18.12 9.52l.72-10-27.15-18.26 1.57-22.36 27.65 12.1zm59.74 134.89V135.7L109.34 73.01v170.28l138.27 72.13zM402.62 75.06l-137.79 60.72v179.8l137.79-70.03V75.06zM255.65 17.63 124.87 61.19l131.4 59.59 131.4-57.91-132.02-45.24zM3.84 286.3c6.94-13.62 23.83-26.54 53.61-37.86.39-.16.82-.24 1.27-.21 1.57.11 2.76 1.47 2.66 3.04-.03.53.04 1.56.1 2.11.14 1.87.49 3.72 1.01 5.49.5 1.74 1.19 3.45 2.05 5.1l.18.32c.74 1.37.25 3.09-1.11 3.86-11.68 6.6-18.46 13.23-21.24 19.78-3.58 8.43-.31 17.06 7.65 25.55 8.52 9.07 22.24 17.89 38.81 26.08 54.49 26.97 138.89 46.87 171.76 47.77v-27.72c.01-.67.24-1.34.72-1.88a2.858 2.858 0 0 1 4.02-.27c17.19 15.1 35.95 30.16 52.06 46.27a2.846 2.846 0 0 1-.05 4.03c-16.47 15.93-34.68 30.92-51.92 46.08-.51.49-1.21.79-1.97.79-1.58 0-2.86-1.29-2.86-2.87v-25.74c-58.7 1.19-154.52-27.16-211.85-63.77-18.02-11.5-32.34-23.89-40.63-36.49-8.64-13.13-10.88-26.51-4.27-39.46z"/></svg>